<svg width="480" height="1405" viewBox="0 0 480 1405" fill="none" xmlns="http://www.w3.org/2000/svg">
<mask id="mask0_1058_28065" style="mask-type:alpha" maskUnits="userSpaceOnUse" x="0" y="0" width="480" height="1405">
<rect width="480" height="1405" fill="#C4C4C4"/>
</mask>
<g mask="url(#mask0_1058_28065)">
<rect width="480" height="1405" fill="#F4F6FE"/>
<rect x="479" width="1" height="1405" fill="#E6EBFD"/>
<g opacity="0.5">
<path d="M249.743 764.676C249.412 749.472 247.791 731.805 235.023 723.449C230.011 720.165 223.971 718.904 218.406 716.669C198.144 708.538 185.308 687.641 181.178 666.298C177.049 644.955 180.241 622.945 183.736 601.489C187.232 580.033 191.035 558.217 188.101 536.68C183.238 501.016 158.661 468.65 125.509 454.253C123.892 453.55 122.158 452.874 120.415 453.14C116.879 453.676 115.104 457.582 113.954 460.947C95.1587 515.922 78.2246 571.524 63.1968 627.634C61.4898 633.999 59.7964 640.571 60.6703 647.103C61.8339 655.802 67.3398 663.194 72.094 670.582C85.8676 691.988 94.5384 716.624 97.1917 741.905C99.1613 760.667 98.1063 780.627 107.311 797.119C117.807 815.926 139.251 825.759 159.97 831.917C180.01 837.872 219.61 851.143 239.836 839.246C260.334 827.178 250.164 784.087 249.743 764.676Z" fill="#F4F6FE"/>
<path d="M314.906 320.929C297.456 323.929 282.016 323.618 268.519 320.577C264.045 319.555 259.789 318.226 255.845 316.532C216.064 292.067 202.566 247.304 194.801 207.622C194.774 203.207 195.082 198.86 195.702 194.603C200.656 160.525 225.391 132.114 262.682 118.952C265.268 118.19 267.93 117.492 270.678 116.857C273.422 116.222 276.248 115.654 279.154 115.154C328.019 106.753 337.559 128.357 342.277 161.566C342.951 166.309 343.526 171.292 344.101 176.454C337.545 220.451 391.535 287.594 333.076 316.419C330.491 317.32 327.693 318.149 324.673 318.901C321.648 319.649 318.397 320.325 314.906 320.929Z" fill="white"/>
<path d="M101.273 1060.99C83.823 1063.99 68.3832 1063.68 54.8858 1060.64C50.4123 1059.62 46.1561 1058.29 42.2124 1056.6C2.43093 1032.13 -11.0665 987.369 -18.8317 947.687C-18.8588 943.273 -18.551 938.926 -17.9306 934.669C-12.9772 900.591 11.7583 872.18 49.0494 859.017C51.6348 858.256 54.2971 857.558 57.0455 856.922C59.7894 856.287 62.6148 855.72 65.5216 855.22C114.386 846.818 123.926 868.423 128.644 901.631C129.319 906.375 129.894 911.357 130.469 916.519C123.912 960.517 177.902 1027.66 119.443 1056.48C116.858 1057.39 114.06 1058.21 111.04 1058.97C108.015 1059.71 104.764 1060.39 101.273 1060.99Z" fill="white"/>
<path d="M38.4314 559.241C38.4314 558.651 38.5582 558.057 38.8253 557.503C39.1242 556.881 39.6358 556.381 40.2697 556.093C41.4786 555.543 42.9139 555.62 44.1093 556.295C44.9741 556.786 45.6352 557.543 45.9883 558.421C46.5769 559.408 46.5543 560.687 45.8344 561.674C44.5983 563.359 42.2212 563.841 40.4236 562.773C39.1559 562.016 38.4314 560.642 38.4314 559.241Z" fill="#4B5382"/>
<path d="M47.9538 538.484C47.9538 537.565 48.2662 536.673 48.8549 535.965C49.4842 535.209 50.4487 534.812 51.4312 534.907C52.5224 535.015 53.4959 535.542 54.2068 536.312C55.6466 537.033 56.2488 538.776 55.5516 540.222C55.0625 541.236 54.1479 541.997 53.0341 542.313C51.9202 542.628 50.7385 542.461 49.7876 541.858C48.8368 541.254 48.1893 540.254 48.0081 539.114C47.9719 538.907 47.9538 538.695 47.9538 538.484Z" fill="#4B5382"/>
<path d="M24.1467 543.916C24.1467 542.705 24.7308 541.605 25.7314 540.943C26.8091 540.227 28.1855 540.2 29.3175 540.871C29.8382 541.177 30.2638 541.605 30.5671 542.096C31.2599 542.448 31.8123 543.069 32.0568 543.871C32.5322 545.43 31.6448 547.079 30.0781 547.552C29.5303 547.718 27.864 548.218 26.2295 547.367C25.0251 546.745 24.2237 545.497 24.1512 544.124C24.1512 544.051 24.1467 543.984 24.1467 543.916ZM26.8996 541.434L26.8951 541.434C26.8951 541.434 26.8951 541.434 26.8996 541.434Z" fill="#4B5382"/>
<path d="M58.6125 491.329C58.6125 490.878 58.6894 490.428 58.8479 489.995C59.3143 488.72 60.4191 487.775 61.8046 487.473C63.1901 487.171 64.5892 487.567 65.5536 488.536C66.6312 489.621 66.6901 491.338 65.7347 492.486C65.7211 493.982 64.5711 495.257 63.0407 495.396C61.6778 495.523 60.3512 494.928 59.4818 493.815C58.9113 493.081 58.6125 492.207 58.6125 491.329Z" fill="#4B5382"/>
<path d="M66.8121 518.397C66.8121 517.438 67.2785 516.542 68.0663 515.987C68.8542 515.433 69.8684 515.294 70.7785 515.618C71.0049 515.699 71.2222 515.798 71.4305 515.915C72.4945 516.154 73.3865 516.974 73.6627 518.1C73.9661 519.334 73.6038 520.632 72.7119 521.587C71.8154 522.537 70.5295 522.974 69.2753 522.758C67.8581 522.51 66.8257 521.289 66.8212 519.861L66.8167 518.411C66.8121 518.402 66.8121 518.402 66.8121 518.397Z" fill="#4B5382"/>
<path d="M28.077 501.347C28.077 500.946 28.1359 500.541 28.2491 500.144C28.5796 499.023 29.3539 498.09 30.3726 497.577C31.8351 496.842 33.619 497.428 34.3571 498.883C34.5246 499.212 34.6242 499.559 34.6604 499.905C34.9502 500.104 35.2038 500.36 35.4166 500.662C36.3448 502.009 35.9961 503.847 34.6423 504.766C33.7005 505.406 32.5052 505.631 31.3597 505.379C30.2141 505.126 29.2225 504.419 28.643 503.442C28.2672 502.811 28.077 502.086 28.077 501.347Z" fill="#4B5382"/>
<path d="M24.3911 477.887C24.3911 477.319 24.4816 476.729 24.6763 476.13C24.9933 475.148 25.7992 474.4 26.8044 474.157C27.8684 473.9 29.0004 474.13 29.9059 474.792C30.3315 475.103 30.6802 475.486 30.9383 475.918C31.2009 476.13 31.4318 476.391 31.6129 476.693C32.5004 478.162 32.1834 479.995 30.8432 481.139C29.4215 482.355 27.3025 482.409 25.9124 481.265C24.9209 480.454 24.3911 479.238 24.3911 477.887Z" fill="#4B5382"/>
<path d="M9.99238 516.776C9.99238 516.091 10.2052 515.402 10.6308 514.708C11.4821 513.316 13.3022 512.875 14.7013 513.721C16.2408 514.649 17.1871 516.397 17.0785 518.199C16.9924 519.825 15.5933 521.078 13.9588 520.992C12.9536 520.938 12.0888 520.393 11.5952 519.6C10.9613 519.226 10.4542 518.645 10.1961 517.933C10.0603 517.546 9.99238 517.163 9.99238 516.776ZM10.572 516.622C10.5674 516.627 10.5674 516.627 10.572 516.622C10.5674 516.627 10.5674 516.627 10.572 516.622Z" fill="#4B5382"/>
<path d="M34.7283 521.677C34.7283 521.172 34.8551 520.681 35.1041 520.24C35.9327 518.762 37.7303 518.127 39.3829 518.726C39.5505 518.785 39.7089 518.857 39.8584 518.938C41.0492 519.384 41.8551 520.564 41.7691 521.897C41.7555 522.073 41.7329 522.24 41.6967 522.402C41.6876 522.478 41.674 522.555 41.6604 522.632C41.3888 523.987 40.2296 524.942 38.903 525.005C38.6675 525.046 38.4276 525.064 38.1785 525.06C36.2859 525.019 34.7736 523.555 34.7329 521.735C34.7283 521.722 34.7283 521.699 34.7283 521.677ZM35.8467 521.501C35.8467 521.505 35.8467 521.505 35.8467 521.501C35.8467 521.505 35.8467 521.505 35.8467 521.501Z" fill="#4B5382"/>
<path d="M5.58241 548.62C5.58241 548.237 5.64128 547.849 5.75447 547.475C5.99445 546.705 6.53779 546.07 7.26224 545.71C7.98669 545.349 8.82431 545.3 9.58499 545.57C11.4052 546.219 12.6458 547.948 12.6685 549.872C12.6051 551.476 11.3735 552.841 9.73441 552.859C9.01902 552.868 8.36249 552.624 7.84179 552.21C7.71501 552.156 7.58822 552.088 7.46597 552.016C6.27968 551.295 5.58241 549.971 5.58241 548.62ZM10.5766 546.984C10.5721 546.984 10.5721 546.984 10.5766 546.984C10.5721 546.984 10.5721 546.984 10.5766 546.984Z" fill="#4B5382"/>
<path d="M-0.466823 486.95C-0.466823 486.126 -0.199681 485.297 0.325546 484.585C1.28544 483.279 2.9064 482.603 4.45039 482.869C6.56035 483.229 8.20395 485.162 8.3579 487.454C8.45751 488.977 7.9504 490.265 7.57459 491.207C7.14445 492.288 6.1121 493.018 4.9394 493.067L3.70782 493.117C2.62114 493.162 1.59787 492.612 1.03642 491.684C0.619858 490.991 0.393455 490.193 0.429677 489.36C0.248564 489.166 0.0901005 488.945 -0.0412063 488.702C-0.326459 488.148 -0.466823 487.549 -0.466823 486.95Z" fill="#4B5382"/>
<path d="M7.68335 464.4C7.68335 462.427 8.86057 460.58 10.7034 459.769C12.2021 459.111 13.9544 459.783 14.6154 461.274C14.9233 461.963 14.9414 462.706 14.7241 463.373C15.1542 464.58 14.7648 465.972 13.6691 466.76C12.6458 467.499 11.3418 467.787 10.1012 467.549C8.84245 467.31 7.87802 466.287 7.71955 465.022C7.69691 464.81 7.68335 464.603 7.68335 464.4Z" fill="#4B5382"/>
<path d="M41.289 455.282C41.289 453.336 42.7288 452.187 43.1997 451.809C44.4766 450.791 46.3466 450.994 47.3698 452.269C47.9132 452.94 48.1124 453.773 47.9856 454.561C48.2845 455.287 48.289 456.125 47.9449 456.89C47.2974 458.318 45.7489 459.084 44.1868 458.755C42.5251 458.404 41.3071 456.958 41.289 455.305C41.289 455.3 41.289 455.291 41.289 455.282ZM42.5387 454.458C42.5387 454.458 42.5387 454.462 42.5387 454.458C42.5387 454.462 42.5387 454.458 42.5387 454.458Z" fill="#4B5382"/>
<path d="M472.543 1396.19C472.543 1395.78 472.602 1395.38 472.715 1394.98C473.046 1393.86 473.82 1392.93 474.839 1392.42C476.301 1391.68 478.085 1392.27 478.823 1393.72C478.991 1394.05 479.091 1394.4 479.127 1394.74C479.417 1394.94 479.67 1395.2 479.883 1395.5C480.811 1396.85 480.462 1398.69 479.109 1399.6C478.167 1400.24 476.972 1400.47 475.826 1400.22C474.68 1399.97 473.689 1399.26 473.109 1398.28C472.733 1397.65 472.543 1396.92 472.543 1396.19Z" fill="#4B5382"/>
<path d="M468.857 1372.73C468.857 1372.16 468.948 1371.57 469.143 1370.97C469.46 1369.99 470.266 1369.24 471.271 1369C472.335 1368.74 473.467 1368.97 474.372 1369.63C474.798 1369.94 475.146 1370.32 475.405 1370.76C475.667 1370.97 475.898 1371.23 476.079 1371.53C476.967 1373 476.65 1374.83 475.309 1375.98C473.888 1377.19 471.769 1377.25 470.379 1376.1C469.387 1375.29 468.857 1374.08 468.857 1372.73Z" fill="#4B5382"/>
<path d="M443.999 1381.79C443.999 1380.96 444.267 1380.14 444.792 1379.42C445.752 1378.12 447.373 1377.44 448.917 1377.71C451.027 1378.07 452.67 1380 452.824 1382.29C452.924 1383.82 452.417 1385.1 452.041 1386.05C451.611 1387.13 450.578 1387.86 449.406 1387.91L448.174 1387.96C447.087 1388 446.064 1387.45 445.503 1386.52C445.086 1385.83 444.86 1385.03 444.896 1384.2C444.715 1384.01 444.556 1383.78 444.425 1383.54C444.14 1382.99 443.999 1382.39 443.999 1381.79Z" fill="#4B5382"/>
<path d="M452.15 1359.24C452.15 1357.27 453.327 1355.42 455.17 1354.61C456.668 1353.95 458.421 1354.62 459.082 1356.11C459.39 1356.8 459.408 1357.54 459.19 1358.21C459.621 1359.42 459.231 1360.81 458.135 1361.6C457.112 1362.34 455.808 1362.63 454.567 1362.39C453.309 1362.15 452.344 1361.13 452.186 1359.86C452.163 1359.65 452.15 1359.44 452.15 1359.24Z" fill="#4B5382"/>
<path d="M454.191 768.416C451.275 769.943 450.591 774.033 452.665 776.578C454.739 779.124 457.813 780.106 459.806 778.651C463.41 776.015 463.161 775.34 462.482 772.272C461.802 769.204 456.315 767.308 454.191 768.416Z" fill="#4B5382"/>
<path d="M460.598 748.784C458.719 751.451 458.461 753.221 459.579 755.334C460.698 757.446 460.924 758.469 463.935 758.446C466.946 758.424 466.946 758.424 468.286 755.239C469.622 752.05 468.997 751.653 467.915 749.212C466.833 746.77 460.879 748.383 460.598 748.784Z" fill="#4B5382"/>
<path d="M444.28 748.09C443.379 750.324 440.454 752.685 443.225 754.969C445.996 757.253 448.241 758.149 450.261 758.028C452.28 757.906 453.009 757.316 453.688 754.059C454.363 750.802 453.304 751.356 452.516 749.279C451.728 747.203 448.785 746.563 448.785 746.563L444.28 748.09Z" fill="#A7B4E3"/>
<path d="M450.673 731.779C447.852 733.148 447.979 735.162 448.101 737.171C448.224 739.18 449.741 740.667 451.361 741.171C452.982 741.671 454.934 742.207 456.03 741.324C457.125 740.441 459.176 740.302 459.751 738.031C460.322 735.761 459.878 734 458.841 732.302C456.799 728.959 454.717 729.991 453.182 730.216C452.19 730.356 450.673 731.779 450.673 731.779Z" fill="#4B5382"/>
<path d="M465.891 730.198C464.066 731.671 463.423 733.68 464.365 735.198C465.796 737.509 464.705 736.73 464.854 736.914C467.308 739.923 468.915 739.667 471.039 738.554C473.162 737.441 471.129 740.892 473.162 737.441C475.195 733.991 475.594 733.369 474.774 731.617C473.955 729.869 472.483 729.549 471.012 729.229C468.064 728.594 465.891 730.198 465.891 730.198Z" fill="#4B5382"/>
<path d="M469.957 742.433C470.274 745.793 470.831 746.847 472.782 747.383C474.734 747.919 476.386 748.09 477.586 746.216C478.786 744.342 479.366 743.433 478.908 741.392C478.456 739.347 478.157 738.932 477.387 738.545C474.005 736.842 472.52 737.473 471.03 738.55C469.133 739.928 469.957 742.433 469.957 742.433Z" fill="#A7B4E3"/>
<path d="M466.144 759.672C464.614 761.51 465.365 763.915 465.891 765.303C466.416 766.69 466.343 767.348 468.625 767.915C470.907 768.483 472.596 768.325 474.059 767.15C475.521 765.969 475.254 764.87 474.906 762.244C474.656 760.366 474.149 758.726 471.904 757.825C469.658 756.928 470.414 756.419 468.005 757.798C465.963 758.965 466.144 759.672 466.144 759.672Z" fill="#4B5382"/>
<path d="M478.533 749.978C476.966 752.145 477.197 753.167 477.686 754.883C478.175 756.6 478.401 757.618 481.381 757.929C484.36 758.239 486.185 756.762 486.95 755.843C487.715 754.924 488.847 753.712 487.434 751.235C486.022 748.757 483.966 749.212 482.35 748.712C480.724 748.208 478.533 749.978 478.533 749.978Z" fill="#4B5382"/>
<path d="M471.782 772.902C469.884 775.033 468.789 775.92 469.577 777.997C470.364 780.074 470.885 781.461 473.566 781.407C476.246 781.353 477.536 781.817 478.474 779.254C479.411 776.691 481.535 775.578 479.094 773.33C476.658 771.078 471.782 772.902 471.782 772.902Z" fill="#4B5382"/>
<path d="M445.85 784.191C443.433 784.939 442.129 787.799 442.948 789.547C443.768 791.295 443.559 793.272 446.575 793.25C449.586 793.227 452.475 791.2 452.615 789.885C452.751 788.57 453.72 787.335 451.94 785.155C450.156 782.97 445.85 784.191 445.85 784.191Z" fill="#4B5382"/>
<path d="M437.157 764.987C436.025 766.199 435.491 768.141 436.641 769.924C437.791 771.708 438.611 773.456 440.63 773.335C442.649 773.213 443.347 772.952 444.51 771.407C445.674 769.861 446.109 768.911 444.995 766.798C443.881 764.685 442.695 763.23 441.368 763.095C440.046 762.956 437.157 764.987 437.157 764.987Z" fill="#4B5382"/>
<path d="M468.268 790.506C466.806 791.687 465.936 793.592 466.688 795.998C467.439 798.403 468.295 799.827 470.278 800.029C472.262 800.236 473.987 799.75 475.187 797.876C476.386 796.002 477.718 794.479 475.974 791.966C474.231 789.452 472.23 789.416 471.234 789.313C470.242 789.213 468.268 790.506 468.268 790.506Z" fill="#4B5382"/>
<path d="M462.518 717.701C461.055 718.882 458.828 720.981 460.607 723.161C462.387 725.341 464.103 726.517 465.33 725.981C467.784 724.905 468.925 725.188 469.681 722.774C470.401 720.472 470.392 719.188 468.508 717.994C466.625 716.796 462.518 717.701 462.518 717.701Z" fill="#4B5382"/>
<path d="M476.246 711.138C474.671 711.805 473.792 712.215 473.109 713.972C472.42 715.729 472.484 716.738 473.041 717.792C473.598 718.846 474.245 719.08 475.201 719.513C476.16 719.945 477.464 720.247 478.325 720.004C479.185 719.76 480.231 719.368 480.697 718.089C481.164 716.81 481.653 715.359 481.607 714.193C481.562 713.021 480.838 711.949 479.733 711.337C478.633 710.724 476.246 711.138 476.246 711.138Z" fill="#4B5382"/>
<path d="M446.892 725.724C445.316 726.391 445.312 728.058 445.171 729.373C445.031 730.689 445.574 731.909 446.996 732.725C448.418 733.536 449.957 733.198 451.003 732.806C452.049 732.414 452.946 731.842 453.118 730.198C453.29 728.553 453.743 727.432 452.52 726.31C451.302 725.184 451.981 725.089 450.342 724.751C448.703 724.414 446.892 725.724 446.892 725.724Z" fill="#A7B4E3"/>
<path d="M473.968 780.781C471.55 781.529 472.175 781.925 472.021 783.407C471.867 784.889 472.461 785.615 473.18 786.687C473.905 787.759 474.036 788.106 475.689 788.277C477.342 788.448 477.989 788.682 479.103 787.633C480.217 786.583 480.66 787.128 481.068 784.84C481.475 782.551 482.118 782.786 481.1 781.349C479.058 778.475 479.452 779.515 477.98 779.196C476.481 778.871 478.84 778.952 476.273 779.52C475.245 779.75 473.968 780.781 473.968 780.781Z" fill="#4B5382"/>
<path d="M467.164 769.096C466.883 770.105 467.055 771.745 467.662 772.308C468.273 772.871 469.011 773.781 470.007 773.88C470.691 773.952 474.263 773.154 474.263 773.154C474.263 773.154 476.323 771.037 476.378 770.546C476.427 770.051 476.323 767.879 476.043 767.352C475.762 766.825 475.155 766.262 474.046 765.65C472.937 765.037 471.913 765.262 471.085 765.177C470.256 765.091 469.744 765.204 468.866 765.614C467.988 766.019 467.435 768.127 467.164 769.096Z" fill="#A7B4E3"/>
<path d="M41.3801 747.565C50.472 743.881 56.6977 737.326 60.6686 728.583C63.9467 721.371 63.1272 713.753 63.0095 706.145C62.5431 676.121 29.4448 654.309 0.679586 663.476C-15.3489 668.585 -27.1438 678.585 -34.5151 694.104C-42.3346 710.568 -37.8431 735.051 -21.4026 746.453C-10.1419 754.264 2.62202 756.097 15.7436 756.205C15.7436 756.205 22.7662 754.611 24.3781 754.584C25.99 754.557 26.3568 754.304 27.5974 754.53C28.838 754.755 28.838 754.755 28.838 754.755C28.838 754.755 28.2177 754.642 29.4855 756.471C30.7533 758.3 29.3678 760.602 30.7533 758.3C32.1389 755.998 32.1388 755.998 32.1388 755.998C32.1388 755.998 35.6705 756.003 35.2177 754.962C34.765 753.922 32.4467 756.057 34.765 753.922C37.0832 751.786 36.49 753.277 37.0832 751.786C37.6763 750.295 37.6763 750.295 37.6763 750.295L41.3801 747.565Z" fill="white"/>
<path d="M-89.7047 630.66C-91.3257 610.871 -82.1885 593.744 -67.9576 579.486C-52.7396 564.243 -34.6962 555.85 -13.0759 556.004C9.10142 556.157 27.8874 565.107 41.8285 581.779C59.5187 602.938 60.1934 627.696 52.3512 652.922C49.2224 662.985 42.3945 671.382 33.2845 676.599C19.2845 684.617 4.62791 692.604 -11.8986 692.838C-35.1671 693.171 -52.3593 681.833 -74.6724 671.13C-80.3367 668.414 -87.5631 671.616 -87.5631 671.616C-95.6633 671.265 -99.8334 668.481 -98.7468 660.886C-98.7468 660.886 -88.283 648.021 -89.7047 630.66Z" fill="white"/>
<path d="M41.3801 747.565C50.472 743.881 56.6977 737.326 60.6686 728.583C63.9467 721.371 63.1272 713.753 63.0095 706.145C62.5431 676.121 29.4448 654.309 0.679586 663.476C-15.3489 668.585 -27.1438 678.585 -34.5151 694.104C-42.3346 710.568 -37.8431 735.051 -21.4026 746.453C-10.1419 754.264 2.62202 756.097 15.7436 756.205C15.7436 756.205 22.7662 754.611 24.3781 754.584C25.99 754.557 26.3568 754.304 27.5974 754.53C28.838 754.755 28.838 754.755 28.838 754.755C28.838 754.755 28.2177 754.642 29.4855 756.471C30.7533 758.3 29.3678 760.602 30.7533 758.3C32.1389 755.998 32.1388 755.998 32.1388 755.998C32.1388 755.998 35.6705 756.003 35.2177 754.962C34.765 753.922 32.4467 756.057 34.765 753.922C37.0832 751.786 36.49 753.277 37.0832 751.786C37.6763 750.295 37.6763 750.295 37.6763 750.295L41.3801 747.565Z" fill="#E8EAF6"/>
<path d="M-11.8987 692.838C4.6324 692.604 19.2845 684.613 33.2845 676.599C36.5309 674.738 39.4831 672.472 42.082 669.873C30.2056 661.995 14.9106 658.945 0.675098 663.481C-13.909 668.13 -24.9795 676.847 -32.4097 690.068C-25.9394 691.888 -19.2202 692.942 -11.8987 692.838Z" fill="#D6D9EA"/>
<path opacity="0.36" d="M41.9144 751.165C45.1517 754.201 54.3659 754.273 58.6854 756.597C59.4325 756.998 60.1388 757.498 60.2701 758.219C60.5237 759.593 58.4771 761.219 56.4079 761.746C54.3387 762.273 52.351 761.985 50.5806 761.575C48.5068 761.097 44.1511 759.701 41.6925 761.453C39.7908 762.809 40.633 766.12 40.8141 767.458C41.0541 769.201 41.2895 770.94 41.5295 772.683C41.6563 773.602 41.7332 774.643 40.8503 775.544C40.0262 776.386 38.5366 776.837 37.3095 776.805C36.0825 776.774 35.0909 776.332 34.2895 775.792C32.8451 774.814 31.8988 773.476 31.5773 771.949C31.283 770.553 31.5049 769.03 31.2785 767.616C31.0521 766.201 30.2552 764.827 28.4803 764.368C27.2216 765.341 26.5514 766.562 25.6912 767.697C24.8309 768.832 23.5676 770.021 21.924 770.422C19.4518 771.026 17.6769 769.381 17.9531 767.625C18.2293 765.868 19.8276 764.129 21.2358 762.444C23.5721 759.656 27.3121 755.903 27.0586 752.921C27.0631 752.926 26.2979 736.533 41.9144 751.165Z" fill="#A7B4E3"/>
<path d="M536.38 96.564C545.472 92.8791 551.698 86.3248 555.669 77.5812C558.947 70.3692 558.127 62.7517 558.009 55.1433C557.543 25.1195 524.445 3.30781 495.68 12.4749C479.651 17.5832 467.856 27.5836 460.485 43.1023C452.665 59.5669 457.157 84.0499 473.597 95.4513C484.858 103.262 497.622 105.096 510.744 105.204C510.744 105.204 517.766 103.609 519.378 103.582C520.99 103.555 521.357 103.303 522.597 103.528C523.838 103.753 523.838 103.753 523.838 103.753C523.838 103.753 523.218 103.641 524.486 105.47C525.753 107.299 524.368 109.601 525.753 107.299C527.139 104.997 527.139 104.997 527.139 104.997C527.139 104.997 530.671 105.001 530.218 103.961C529.765 102.92 527.447 105.055 529.765 102.92C532.083 100.785 531.49 102.276 532.083 100.785C532.676 99.2938 532.676 99.2938 532.676 99.2938L536.38 96.564Z" fill="white"/>
<path d="M405.295 -20.3417C403.674 -40.1308 412.811 -57.2576 427.042 -71.515C442.26 -86.7589 460.304 -95.1511 481.924 -94.9979C504.101 -94.8448 522.887 -85.894 536.829 -69.2221C554.519 -48.0636 555.193 -23.3058 547.351 1.92048C544.222 11.984 537.394 20.3807 528.285 25.5972C514.284 33.6155 499.628 41.6024 483.101 41.8366C459.833 42.17 442.641 30.8316 420.328 20.1285C414.663 17.4121 407.437 20.6149 407.437 20.6149C399.337 20.2636 395.167 17.4797 396.253 9.88479C396.253 9.88479 406.717 -2.9806 405.295 -20.3417Z" fill="white"/>
<path d="M536.38 96.564C545.472 92.8791 551.698 86.3248 555.669 77.5812C558.947 70.3692 558.127 62.7517 558.009 55.1433C557.543 25.1195 524.445 3.30781 495.68 12.4749C479.651 17.5832 467.856 27.5836 460.485 43.1023C452.665 59.5669 457.157 84.0499 473.597 95.4513C484.858 103.262 497.622 105.096 510.744 105.204C510.744 105.204 517.766 103.609 519.378 103.582C520.99 103.555 521.357 103.303 522.597 103.528C523.838 103.753 523.838 103.753 523.838 103.753C523.838 103.753 523.218 103.641 524.486 105.47C525.753 107.299 524.368 109.601 525.753 107.299C527.139 104.997 527.139 104.997 527.139 104.997C527.139 104.997 530.671 105.001 530.218 103.961C529.765 102.92 527.447 105.055 529.765 102.92C532.083 100.785 531.49 102.276 532.083 100.785C532.676 99.2938 532.676 99.2938 532.676 99.2938L536.38 96.564Z" fill="#E8EAF6"/>
<path d="M483.101 41.8368C499.632 41.6025 514.284 33.6112 528.284 25.5973C531.531 23.7369 534.483 21.471 537.082 18.8718C525.206 10.9931 509.911 7.9434 495.675 12.4796C481.091 17.1285 470.02 25.8451 462.59 39.0664C469.061 40.8863 475.78 41.9404 483.101 41.8368Z" fill="#D6D9EA"/>
<path d="M405.992 19.3809C403.135 22.7729 403.597 31.931 401.519 36.3546C401.161 37.1204 400.699 37.8502 399.984 38.0213C398.621 38.3502 396.869 36.4132 396.221 34.3906C395.574 32.368 395.746 30.3769 396.054 28.593C396.412 26.5074 397.562 22.0973 395.66 19.7593C394.188 17.9484 390.915 18.98 389.584 19.2368C387.849 19.5746 386.115 19.9125 384.381 20.2503C383.467 20.4305 382.425 20.5701 381.474 19.7458C380.582 18.9755 380.039 17.5205 380.003 16.3042C379.962 15.0834 380.347 14.0743 380.845 13.2455C381.741 11.7544 383.032 10.7364 384.544 10.3309C385.925 9.95706 387.469 10.0922 388.873 9.78139C390.276 9.47057 391.608 8.60117 391.97 6.81281C390.919 5.61906 389.656 5.0244 388.47 4.23608C387.279 3.44775 386.016 2.25853 385.518 0.654859C384.771 -1.76417 386.315 -3.62461 388.094 -3.45343C389.869 -3.28225 391.712 -1.79572 393.482 -0.493861C396.416 1.66389 400.396 5.15953 403.375 4.73609C403.362 4.73609 419.761 3.01981 405.992 19.3809Z" fill="#D1DAFB"/>
<path d="M392.725 263.601C392.662 263.547 392.598 263.493 392.526 263.448C392.245 263.259 391.933 263.101 391.602 263.016C391.539 262.998 391.471 262.984 391.403 262.971C390.941 262.912 390.325 262.682 389.913 263.169C389.492 263.606 389.406 264.128 389.47 264.66C389.483 264.791 389.51 264.926 389.542 265.061C389.624 265.642 389.904 266.124 390.239 266.565C390.316 266.665 390.371 266.768 390.411 266.876C390.579 267.309 390.534 267.8 390.742 268.264C390.774 268.331 390.801 268.394 390.832 268.457C391.109 269.048 391.376 269.534 391.901 269.944C392.363 270.304 392.924 270.597 393.522 270.611C393.59 270.606 393.658 270.597 393.726 270.588C394.817 270.417 395.831 269.372 396.148 268.304C396.171 268.228 396.193 268.156 396.207 268.084C396.393 267.174 395.863 266.295 395.247 265.624C395.206 265.583 395.166 265.543 395.12 265.502C394.903 265.3 394.658 265.088 394.405 264.881C394.373 264.854 394.337 264.827 394.305 264.8C393.979 264.534 393.599 264.349 393.264 264.101C393.074 263.948 392.911 263.759 392.725 263.601Z" fill="#4B5382"/>
<path d="M369.18 252.524C369.325 252.628 369.461 252.736 369.597 252.853C369.873 253.092 370.167 253.317 370.444 253.556C371.023 254.047 371.576 254.565 372.069 255.146C372.368 255.497 372.653 255.903 372.68 256.367C372.698 256.754 372.531 257.124 372.332 257.457C372.128 257.804 371.879 258.142 371.535 258.349C371.173 258.565 370.729 258.619 370.312 258.565C369.896 258.511 369.497 258.353 369.117 258.169C367.012 257.142 365.445 255.295 363.946 253.497C363.788 253.308 363.625 253.105 363.579 252.867C363.534 252.637 363.607 252.398 363.688 252.177C363.833 251.776 364.046 251.367 364.431 251.173C364.73 251.024 365.078 251.029 365.413 251.069C366.151 251.155 366.867 251.389 367.555 251.655C368.13 251.876 368.682 252.164 369.18 252.524Z" fill="#4B5382"/>
<path d="M347.991 236.726C347.026 235.19 346.193 233.834 345.822 232.262C345.618 231.397 344.79 230.388 345.998 229.726C346.918 229.222 347.846 229.69 348.683 230.222C350.961 231.672 351.966 234.069 353.152 236.299C353.641 237.213 353.863 238.362 352.709 239.146C351.572 239.916 350.717 239.357 349.906 238.551C349.222 237.889 348.525 237.24 347.991 236.726Z" fill="#4B5382"/>
<path d="M368.053 233.695C367.324 231.992 364.933 229.433 367.129 228.271C369.679 226.924 370.584 230.456 371.829 232.222C372.812 233.618 374.315 235.758 372.585 236.821C369.991 238.42 369.253 235.479 368.053 233.695Z" fill="#4B5382"/>
<path d="M389.587 247.619C389.651 247.673 389.714 247.727 389.786 247.772C390.067 247.961 390.38 248.119 390.71 248.204C390.773 248.222 390.841 248.236 390.909 248.249C391.371 248.308 391.987 248.538 392.399 248.051C392.82 247.614 392.906 247.092 392.843 246.56C392.829 246.429 392.802 246.294 392.77 246.159C392.689 245.578 392.408 245.096 392.073 244.655C391.996 244.555 391.942 244.452 391.901 244.344C391.733 243.911 391.779 243.42 391.57 242.956C391.539 242.889 391.511 242.826 391.48 242.763C391.204 242.172 390.936 241.686 390.411 241.276C389.949 240.916 389.388 240.623 388.79 240.609C388.722 240.614 388.654 240.623 388.587 240.632C387.495 240.803 386.481 241.848 386.164 242.916C386.142 242.992 386.119 243.064 386.105 243.136C385.92 244.046 386.449 244.925 387.065 245.596C387.106 245.637 387.147 245.677 387.192 245.718C387.409 245.92 387.654 246.132 387.907 246.339C387.939 246.366 387.975 246.393 388.007 246.42C388.333 246.686 388.713 246.871 389.048 247.119C389.234 247.272 389.402 247.461 389.587 247.619Z" fill="#4B5382"/>
<path d="M344.486 258.142C344.481 257.966 344.49 257.79 344.499 257.615C344.527 257.254 344.531 256.885 344.558 256.52C344.608 255.763 344.694 255.016 344.866 254.277C344.97 253.826 345.124 253.358 345.482 253.06C345.781 252.813 346.184 252.727 346.569 252.687C346.972 252.642 347.388 252.637 347.764 252.79C348.153 252.948 348.461 253.268 348.67 253.637C348.873 254.002 348.987 254.416 349.064 254.826C349.498 257.119 348.941 259.475 348.393 261.741C348.335 261.98 348.271 262.232 348.104 262.412C347.945 262.588 347.71 262.673 347.483 262.741C347.076 262.863 346.614 262.939 346.234 262.75C345.935 262.601 345.731 262.318 345.563 262.029C345.192 261.39 344.952 260.678 344.753 259.971C344.59 259.372 344.495 258.759 344.486 258.142Z" fill="#4B5382"/>
<path d="M391.181 195.535C391.177 195.36 391.186 195.184 391.195 195.008C391.222 194.648 391.227 194.279 391.254 193.914C391.304 193.157 391.39 192.409 391.562 191.67C391.666 191.22 391.82 190.751 392.177 190.454C392.476 190.206 392.879 190.121 393.264 190.08C393.667 190.035 394.084 190.031 394.459 190.184C394.849 190.341 395.157 190.661 395.365 191.031C395.573 191.4 395.682 191.81 395.759 192.22C396.194 194.513 395.637 196.869 395.089 199.135C395.03 199.373 394.966 199.626 394.799 199.806C394.641 199.981 394.405 200.067 394.179 200.135C393.771 200.256 393.309 200.333 392.929 200.144C392.63 199.995 392.426 199.711 392.259 199.423C391.888 198.783 391.648 198.071 391.448 197.364C391.285 196.765 391.19 196.152 391.181 195.535Z" fill="#4B5382"/>
<path d="M388.542 219.496C390.131 220.383 391.517 221.176 392.599 222.374C393.192 223.037 394.405 223.528 393.667 224.681C393.106 225.559 392.06 225.595 391.073 225.528C388.374 225.343 386.337 223.717 384.222 222.329C383.353 221.757 382.606 220.856 383.24 219.618C383.865 218.397 384.888 218.482 385.988 218.802C386.903 219.068 387.826 219.302 388.542 219.496Z" fill="#4B5382"/>
<path d="M376.687 207.694C375.75 209.293 375.121 212.73 372.87 211.671C370.258 210.446 372.562 207.608 373.246 205.558C373.785 203.941 374.604 201.459 376.502 202.207C379.336 203.324 377.403 205.671 376.687 207.694Z" fill="#4B5382"/>
<path d="M379.201 179.102C379.205 179.021 379.21 178.936 379.205 178.85C379.187 178.512 379.128 178.17 379.001 177.855C378.974 177.792 378.947 177.733 378.92 177.67C378.689 177.264 378.508 176.638 377.869 176.602C377.267 176.526 376.792 176.773 376.402 177.143C376.307 177.233 376.212 177.337 376.126 177.44C375.705 177.855 375.483 178.364 375.334 178.895C375.298 179.012 375.248 179.12 375.189 179.22C374.94 179.611 374.519 179.868 374.27 180.314C374.234 180.377 374.202 180.44 374.17 180.503C373.862 181.075 373.627 181.584 373.613 182.242C373.6 182.828 373.699 183.449 374.048 183.936C374.089 183.985 374.139 184.035 374.188 184.085C374.976 184.85 376.425 185.035 377.476 184.648C377.553 184.621 377.62 184.594 377.688 184.562C378.531 184.166 378.92 183.22 379.096 182.328C379.106 182.269 379.11 182.215 379.119 182.157C379.155 181.864 379.178 181.539 379.192 181.215C379.192 181.17 379.196 181.13 379.196 181.084C379.214 180.666 379.137 180.251 379.133 179.837C379.128 179.589 379.178 179.346 379.201 179.102Z" fill="#4B5382"/>
<path d="M356.525 197.162C358.182 197.914 359.627 198.59 360.808 199.698C361.456 200.306 362.706 200.693 362.067 201.909C361.578 202.833 360.546 202.95 359.554 202.968C356.851 203.009 354.682 201.558 352.459 200.346C351.544 199.846 350.725 199.013 351.25 197.729C351.771 196.463 352.794 196.463 353.922 196.689C354.85 196.873 355.792 197.031 356.525 197.162Z" fill="#4B5382"/>
<path d="M407.626 210.901C407.459 210.847 407.291 210.784 407.128 210.712C406.793 210.568 406.444 210.442 406.105 210.297C405.403 210 404.719 209.676 404.072 209.27C403.678 209.023 403.284 208.725 403.121 208.293C402.985 207.928 403.035 207.527 403.121 207.149C403.212 206.757 403.343 206.36 403.61 206.059C403.891 205.743 404.294 205.558 404.71 205.486C405.127 205.414 405.552 205.441 405.969 205.504C408.292 205.851 410.343 207.14 412.317 208.401C412.525 208.536 412.743 208.676 412.86 208.892C412.974 209.099 412.978 209.347 412.969 209.581C412.951 210.005 412.874 210.464 412.566 210.761C412.331 210.996 411.991 211.095 411.665 211.153C410.936 211.293 410.184 211.288 409.442 211.239C408.831 211.207 408.215 211.099 407.626 210.901Z" fill="#4B5382"/>
<path d="M412.965 232.731C411.181 232.362 409.619 232.024 408.224 231.204C407.454 230.753 406.15 230.65 406.503 229.325C406.771 228.316 407.758 227.974 408.718 227.74C411.348 227.105 413.78 228.042 416.22 228.731C417.221 229.015 418.208 229.65 417.981 231.019C417.76 232.371 416.754 232.596 415.609 232.623C414.658 232.645 413.703 232.699 412.965 232.731Z" fill="#4B5382"/>
<path d="M24.2402 1379.6C24.1768 1379.55 24.1134 1379.49 24.041 1379.45C23.7603 1379.26 23.4479 1379.1 23.1173 1379.02C23.0539 1379 22.986 1378.98 22.9181 1378.97C22.4563 1378.91 21.8405 1378.68 21.4284 1379.17C21.0073 1379.61 20.9213 1380.13 20.9847 1380.66C20.9983 1380.79 21.0255 1380.93 21.0571 1381.06C21.1386 1381.64 21.4194 1382.12 21.7544 1382.57C21.8314 1382.66 21.8858 1382.77 21.9265 1382.88C22.094 1383.31 22.0488 1383.8 22.257 1384.26C22.2887 1384.33 22.3159 1384.39 22.3476 1384.46C22.6238 1385.05 22.8909 1385.53 23.4162 1385.94C23.878 1386.3 24.4395 1386.6 25.0371 1386.61C25.105 1386.61 25.173 1386.6 25.2409 1386.59C26.3321 1386.42 27.3463 1385.37 27.6633 1384.3C27.6859 1384.23 27.7085 1384.16 27.7221 1384.08C27.9078 1383.17 27.378 1382.3 26.7622 1381.62C26.7215 1381.58 26.6807 1381.54 26.6354 1381.5C26.4181 1381.3 26.1736 1381.09 25.9201 1380.88C25.8884 1380.85 25.8521 1380.83 25.8204 1380.8C25.4944 1380.53 25.1141 1380.35 24.779 1380.1C24.5889 1379.95 24.4259 1379.76 24.2402 1379.6Z" fill="#4B5382"/>
<path d="M0.695461 1368.52C0.84035 1368.63 0.976176 1368.74 1.11201 1368.85C1.38821 1369.09 1.68251 1369.32 1.9587 1369.56C2.53826 1370.05 3.09066 1370.56 3.58419 1371.15C3.88303 1371.5 4.16827 1371.9 4.19543 1372.37C4.21354 1372.75 4.04604 1373.12 3.84681 1373.46C3.64306 1373.8 3.39403 1374.14 3.04992 1374.35C2.68769 1374.57 2.24396 1374.62 1.82741 1374.57C1.41085 1374.51 1.0124 1374.35 0.632065 1374.17C-1.47336 1373.14 -3.03999 1371.29 -4.53869 1369.5C-4.69716 1369.31 -4.86013 1369.11 -4.90541 1368.87C-4.95069 1368.64 -4.87825 1368.4 -4.79675 1368.18C-4.65186 1367.78 -4.43905 1367.37 -4.05419 1367.17C-3.75535 1367.02 -3.40672 1367.03 -3.07166 1367.07C-2.33363 1367.15 -1.61825 1367.39 -0.930028 1367.65C-0.354998 1367.88 0.197404 1368.16 0.695461 1368.52Z" fill="#4B5382"/>
<path d="M-0.431785 1349.69C-1.16076 1347.99 -3.55146 1345.43 -1.35547 1344.27C1.19368 1342.92 2.09924 1346.46 3.34439 1348.22C4.32692 1349.62 5.83018 1351.76 4.10055 1352.82C1.50612 1354.42 0.768084 1351.48 -0.431785 1349.69Z" fill="#4B5382"/>
<path d="M21.1023 1363.62C21.1657 1363.67 21.2291 1363.73 21.3015 1363.77C21.5823 1363.96 21.8947 1364.12 22.2252 1364.2C22.2886 1364.22 22.3565 1364.24 22.4244 1364.25C22.8863 1364.31 23.502 1364.54 23.914 1364.05C24.3351 1363.61 24.4212 1363.09 24.3578 1362.56C24.3442 1362.43 24.317 1362.29 24.2853 1362.16C24.2038 1361.58 23.9231 1361.1 23.5881 1360.65C23.5111 1360.56 23.4568 1360.45 23.416 1360.34C23.2485 1359.91 23.2938 1359.42 23.0855 1358.96C23.0538 1358.89 23.0266 1358.83 22.9949 1358.76C22.7187 1358.17 22.4516 1357.69 21.9264 1357.28C21.4645 1356.92 20.9031 1356.62 20.3054 1356.61C20.2375 1356.61 20.1696 1356.62 20.1017 1356.63C19.0105 1356.8 17.9963 1357.85 17.6793 1358.92C17.6567 1358.99 17.634 1359.06 17.6205 1359.14C17.4348 1360.05 17.9646 1360.92 18.5803 1361.6C18.6211 1361.64 18.6618 1361.68 18.7071 1361.72C18.9244 1361.92 19.169 1362.13 19.4225 1362.34C19.4542 1362.37 19.4904 1362.39 19.5221 1362.42C19.8481 1362.69 20.2285 1362.87 20.5635 1363.12C20.7492 1363.27 20.9167 1363.46 21.1023 1363.62Z" fill="#4B5382"/>
<path d="M22.6965 1311.54C22.6919 1311.36 22.701 1311.18 22.7101 1311.01C22.7372 1310.65 22.7417 1310.28 22.7689 1309.91C22.8187 1309.16 22.9047 1308.41 23.0768 1307.67C23.1809 1307.22 23.3349 1306.75 23.6926 1306.45C23.9914 1306.21 24.3944 1306.12 24.7792 1306.08C25.1822 1306.04 25.5987 1306.03 25.9745 1306.18C26.3639 1306.34 26.6718 1306.66 26.8801 1307.03C27.0883 1307.4 27.197 1307.81 27.274 1308.22C27.7086 1310.51 27.1517 1312.87 26.6039 1315.13C26.545 1315.37 26.4816 1315.63 26.3141 1315.81C26.1556 1315.98 25.9202 1316.07 25.6938 1316.13C25.2863 1316.26 24.8245 1316.33 24.4442 1316.14C24.1453 1315.99 23.9416 1315.71 23.774 1315.42C23.4028 1314.78 23.1628 1314.07 22.9636 1313.36C22.8006 1312.77 22.7055 1312.15 22.6965 1311.54Z" fill="#4B5382"/>
<path d="M20.0569 1335.5C21.6462 1336.38 23.0317 1337.18 24.1138 1338.37C24.707 1339.04 25.9205 1339.53 25.1824 1340.68C24.621 1341.56 23.575 1341.6 22.588 1341.53C19.8894 1341.34 17.8519 1339.72 15.7374 1338.33C14.868 1337.76 14.1209 1336.86 14.7548 1335.62C15.3797 1334.4 16.403 1334.48 17.5032 1334.8C18.4179 1335.07 19.3415 1335.3 20.0569 1335.5Z" fill="#4B5382"/>
<path d="M8.20236 1323.69C7.26511 1325.29 6.63575 1328.73 4.38545 1327.67C1.77292 1326.45 4.07754 1323.61 4.76123 1321.56C5.30004 1319.94 6.11957 1317.46 8.0167 1318.21C10.8511 1319.32 8.91775 1321.67 8.20236 1323.69Z" fill="#4B5382"/>
<path d="M10.7153 1295.1C10.7198 1295.02 10.7243 1294.94 10.7198 1294.85C10.7017 1294.51 10.6428 1294.17 10.5161 1293.85C10.4889 1293.79 10.4617 1293.73 10.4346 1293.67C10.2036 1293.26 10.0225 1292.64 9.38411 1292.6C8.78192 1292.53 8.3065 1292.77 7.91712 1293.14C7.82203 1293.23 7.72693 1293.34 7.6409 1293.44C7.21982 1293.85 6.99796 1294.36 6.84854 1294.9C6.81232 1295.01 6.76254 1295.12 6.70368 1295.22C6.45465 1295.61 6.03355 1295.87 5.78453 1296.31C5.74831 1296.38 5.71662 1296.44 5.68493 1296.5C5.37704 1297.08 5.14158 1297.58 5.128 1298.24C5.11441 1298.83 5.21403 1299.45 5.56267 1299.94C5.60342 1299.99 5.65323 1300.04 5.70303 1300.08C6.49086 1300.85 7.93975 1301.04 8.99019 1300.65C9.06717 1300.62 9.13507 1300.59 9.20299 1300.56C10.0452 1300.17 10.4346 1299.22 10.6111 1298.33C10.6202 1298.27 10.6247 1298.22 10.6338 1298.16C10.67 1297.86 10.6926 1297.54 10.7062 1297.22C10.7062 1297.17 10.7107 1297.13 10.7107 1297.08C10.7289 1296.67 10.6519 1296.25 10.6473 1295.84C10.6428 1295.59 10.6926 1295.35 10.7153 1295.1Z" fill="#4B5382"/>
<path d="M39.1414 1326.9C38.9738 1326.85 38.8063 1326.78 38.6433 1326.71C38.3082 1326.57 37.9596 1326.44 37.62 1326.3C36.9182 1326 36.2345 1325.68 35.587 1325.27C35.1931 1325.02 34.7992 1324.73 34.6362 1324.29C34.5003 1323.93 34.5501 1323.53 34.6362 1323.15C34.7267 1322.76 34.858 1322.36 35.1252 1322.06C35.4059 1321.74 35.8089 1321.56 36.2254 1321.49C36.642 1321.41 37.0676 1321.44 37.4842 1321.5C39.807 1321.85 41.8581 1323.14 43.8323 1324.4C44.0405 1324.54 44.2578 1324.68 44.3756 1324.89C44.4888 1325.1 44.4933 1325.35 44.4843 1325.58C44.4662 1326 44.3892 1326.46 44.0813 1326.76C43.8458 1327 43.5062 1327.09 43.1802 1327.15C42.4513 1327.29 41.6996 1327.29 40.957 1327.24C40.3458 1327.21 39.73 1327.1 39.1414 1326.9Z" fill="#4B5382"/>
<path d="M44.4798 1348.73C42.6958 1348.36 41.1337 1348.02 39.7392 1347.2C38.9694 1346.75 37.6654 1346.65 38.0186 1345.33C38.2857 1344.32 39.2728 1343.97 40.2327 1343.74C42.8634 1343.1 45.2948 1344.04 47.7353 1344.73C48.7359 1345.01 49.723 1345.65 49.4966 1347.02C49.2747 1348.37 48.2695 1348.6 47.124 1348.62C46.1732 1348.65 45.2178 1348.7 44.4798 1348.73Z" fill="#4B5382"/>
<path d="M464.106 430.001C464.106 430.001 457.713 439.123 459.248 439.965C460.783 440.808 470.427 435.465 470.427 435.465L464.106 430.001Z" stroke="#D1DAFB" stroke-width="9.76925" stroke-miterlimit="10"/>
<path d="M484.313 441.758C483.358 445.889 479.74 451.214 480.709 453.074C481.683 454.935 491.997 445.975 491.997 445.975L484.313 441.758Z" stroke="#D1DAFB" stroke-width="9.76925" stroke-miterlimit="10"/>
<path d="M489.838 466.728C488.656 470.066 486.234 478.043 486.234 478.043C486.234 478.043 499.233 473.881 499.853 471.561C500.474 469.241 489.838 466.728 489.838 466.728Z" stroke="#D1DAFB" stroke-width="9.76925" stroke-miterlimit="10"/>
<path d="M480.533 489.535C479.913 491.855 477.776 499.324 477.776 499.324L489.24 494.315L480.533 489.535Z" stroke="#D1DAFB" stroke-width="9.76925" stroke-miterlimit="10"/>
<path d="M457.767 457.097L454.851 470.786C454.851 470.786 466.931 463.457 467.267 461.651C467.602 459.84 457.767 457.097 457.767 457.097Z" stroke="#D1DAFB" stroke-width="9.76925" stroke-miterlimit="10"/>
<path d="M434.806 455.128C433.625 458.466 431.89 468.818 431.89 468.818L444.817 459.961L434.806 455.128Z" stroke="#D1DAFB" stroke-width="9.76925" stroke-miterlimit="10"/>
<path d="M442.54 477.323C440.792 481.679 436.622 494.017 439.008 493.332C441.395 492.648 453.013 483.737 451.759 482.386C450.504 481.03 442.54 477.323 442.54 477.323Z" stroke="#D1DAFB" stroke-width="9.76925" stroke-miterlimit="10"/>
<path d="M467.199 476.233C464.953 476.877 461.774 487.215 463.029 488.567C464.283 489.918 475.163 479.94 475.163 479.94C475.163 479.94 467.991 476.003 467.199 476.233Z" stroke="#D1DAFB" stroke-width="9.76925" stroke-miterlimit="10"/>
<path d="M461.756 500.5C460.063 503.558 453.507 516.577 455.608 516.401C457.708 516.225 469.155 505.225 469.155 505.225L461.756 500.5Z" stroke="#D1DAFB" stroke-width="9.76925" stroke-miterlimit="10"/>
<path d="M438.583 503.734C435.165 504.716 433.901 515.789 434.875 517.649C435.848 519.509 448.087 508.284 448.087 508.284C448.087 508.284 439.38 503.504 438.583 503.734Z" stroke="#D1DAFB" stroke-width="9.76925" stroke-miterlimit="10"/>
<path d="M421.875 502.536C421.255 504.856 415.994 511.937 418.837 512.833C421.68 513.73 429.382 504.662 429.382 504.662L421.875 502.536Z" stroke="#D1DAFB" stroke-width="9.76925" stroke-miterlimit="10"/>
<path d="M420.164 480.327C420.164 480.327 417.302 492.715 419.122 493.049C420.942 493.382 429.333 486.688 429.156 484.598C428.975 482.508 421.803 478.57 420.164 480.327Z" stroke="#D1DAFB" stroke-width="9.76925" stroke-miterlimit="10"/>
</g>
<path d="M536.95 88.6113C515.043 85.0826 491.853 97.0388 485.778 119.098C479.59 141.551 493.188 165.712 504.499 184.162C515.778 202.561 528.05 216.925 505.905 232.212C492.021 241.799 473.824 239.852 457.852 241.147C436.816 242.855 423.252 253.563 410.174 269.991C406.427 274.697 402.708 279.634 401.036 285.415C398.08 295.644 402.001 306.46 405.865 316.38C409.785 326.44 413.785 336.642 420.315 345.233C426.844 353.825 436.357 360.737 447.098 361.643C468.021 363.402 492.738 338.941 507.408 323.888C523.704 307.159 534.177 299.074 551.864 283.833C570.693 267.612 580.061 248.476 593.644 228.543C605.935 210.515 615.139 190.624 614.825 168.222C614.207 124.607 577.48 95.1384 536.95 88.6113C554.983 91.5159 523.68 86.4762 536.95 88.6113Z" fill="#E8EAF6"/>
<path d="M168.465 1204.61C146.558 1201.08 123.367 1213.04 117.292 1235.1C111.105 1257.55 124.702 1281.71 136.014 1300.16C147.293 1318.56 159.565 1332.92 137.419 1348.21C123.536 1357.8 105.339 1355.85 89.3666 1357.15C68.331 1358.85 54.7663 1369.56 41.6887 1385.99C37.9415 1390.7 34.2225 1395.63 32.5503 1401.41C29.5947 1411.64 33.5152 1422.46 37.3795 1432.38C41.2999 1442.44 45.3 1452.64 51.8294 1461.23C58.3589 1469.83 67.872 1476.74 78.6123 1477.64C99.5355 1479.4 124.253 1454.94 138.923 1439.89C155.218 1423.16 165.692 1415.07 183.378 1399.83C202.208 1383.61 211.576 1364.48 225.159 1344.54C237.45 1326.51 246.654 1306.62 246.34 1284.22C245.722 1240.61 208.995 1211.14 168.465 1204.61C186.498 1207.52 155.195 1202.48 168.465 1204.61Z" fill="#E8EAF6"/>
<path d="M551.248 1152.24C533.196 1155.37 517.224 1155.04 503.261 1151.88C498.633 1150.81 494.23 1149.43 490.151 1147.66C448.998 1122.18 435.035 1075.55 427.002 1034.21C426.974 1029.62 427.292 1025.09 427.934 1020.65C433.058 985.156 458.647 955.561 497.224 941.85C499.898 941.057 502.652 940.329 505.495 939.668C508.334 939.006 511.257 938.415 514.264 937.894C564.813 929.143 574.682 951.647 579.563 986.24C580.261 991.181 580.855 996.371 581.45 1001.75C574.668 1047.58 630.519 1117.52 570.045 1147.55C567.37 1148.48 564.476 1149.35 561.351 1150.13C558.223 1150.91 554.86 1151.61 551.248 1152.24Z" fill="#E8EAF6"/>
<path d="M77.2482 253.242C59.1963 256.367 43.224 256.044 29.2612 252.876C24.6334 251.811 20.2304 250.427 16.1507 248.662C-25.0025 223.178 -38.9653 176.55 -46.9983 135.215C-47.0264 130.616 -46.7079 126.088 -46.0662 121.654C-40.9419 86.1557 -15.3535 56.5608 23.2235 42.8497C25.8981 42.0567 28.6522 41.3293 31.4954 40.6677C34.3338 40.0061 37.2567 39.4148 40.2638 38.894C90.813 30.1427 100.682 52.6474 105.563 87.2397C106.261 92.1807 106.855 97.3705 107.45 102.748C100.668 148.579 156.519 218.519 96.0449 248.545C93.3704 249.484 90.4757 250.347 87.3515 251.131C84.2226 251.91 80.8595 252.613 77.2482 253.242Z" fill="#E8EAF6"/>
<path d="M471.407 928.647C471.407 927.642 472.105 926.739 473.124 926.519C474.296 926.265 475.453 927.004 475.715 928.176C475.741 928.288 477.309 934.702 484.85 940.291C485.817 941.008 486.022 942.374 485.306 943.341C484.589 944.308 483.222 944.513 482.255 943.796C473.292 937.155 471.526 929.442 471.459 929.117C471.421 928.956 471.407 928.8 471.407 928.647Z" fill="#D1DAFB"/>
<path d="M463 947.018C463 946.652 463.093 946.279 463.287 945.935C463.885 944.894 465.214 944.532 466.259 945.125C466.636 945.342 475.536 950.509 482.294 961.443C482.928 962.466 482.607 963.81 481.584 964.445C480.561 965.08 479.217 964.759 478.583 963.736C472.438 953.79 464.176 948.959 464.094 948.911C463.392 948.508 463 947.776 463 947.018Z" fill="#D1DAFB"/>
<path d="M466.736 908.404C466.736 907.956 466.874 907.501 467.161 907.113C467.874 906.142 469.241 905.937 470.211 906.65C470.473 906.84 476.603 911.398 478.992 916.513C479.5 917.603 479.029 918.902 477.939 919.41C476.849 919.918 475.55 919.447 475.042 918.357C473.448 914.938 469.147 911.279 467.628 910.159C467.042 909.733 466.736 909.073 466.736 908.404Z" fill="#D1DAFB"/>
<path d="M48.8965 43.1424C48.8965 42.5377 49.1467 41.9366 49.6357 41.5035C50.5392 40.7084 51.9167 40.798 52.7119 41.7014C52.8015 41.8059 61.8809 52.1209 64.7592 55.4099C65.5507 56.3134 65.4611 57.6909 64.5539 58.4861C63.6467 59.2776 62.2691 59.188 61.4777 58.2808C58.6068 54.9993 49.5312 44.688 49.4416 44.5835C49.0757 44.1691 48.8965 43.6539 48.8965 43.1424Z" fill="#D1DAFB"/>
<path d="M47.0261 61.8276C47.0261 61.234 47.2687 60.6404 47.7429 60.2111C48.6351 59.401 50.0127 59.4719 50.8228 60.3642C50.9423 60.4986 62.941 73.7405 67.8876 79.5084C68.6716 80.423 68.5633 81.7969 67.6524 82.5809C66.7378 83.3648 65.3602 83.2603 64.5799 82.3457C59.6744 76.6226 47.7167 63.4217 47.5973 63.291C47.2127 62.8729 47.0261 62.3503 47.0261 61.8276Z" fill="#D1DAFB"/>
<path d="M59.4841 34.735C59.4841 34.0779 59.779 33.4321 60.339 33.0028C61.2947 32.271 62.6648 32.454 63.3928 33.4097C63.4936 33.5366 68.6493 40.1519 76.3398 43.9972C77.415 44.5348 77.8555 45.8452 77.3142 46.9203C76.7766 47.9955 75.4662 48.4323 74.391 47.8947C65.7336 43.5679 60.1636 36.3627 59.9321 36.0566C59.6297 35.6646 59.4841 35.1979 59.4841 34.735Z" fill="#D1DAFB"/>
<path d="M52.6336 14.1835C52.6336 13.6123 52.8576 13.0448 53.2982 12.6155C54.1643 11.7792 55.5456 11.8016 56.3818 12.6678L68.4216 25.1257C69.2579 25.9918 69.2355 27.3731 68.3694 28.2094C67.5032 29.0456 66.1219 29.0232 65.2857 28.1571L53.2459 15.6954C52.8352 15.2736 52.6336 14.7285 52.6336 14.1835Z" fill="#D1DAFB"/>
<path d="M-2.59344 29.6466C-2.59344 28.6424 -1.89531 27.7389 -0.876125 27.5187C0.296125 27.2648 1.45344 28.004 1.71477 29.1762C1.74091 29.2882 3.30888 35.702 10.8501 41.2908C11.817 42.0076 12.0224 43.3739 11.3056 44.3409C10.5888 45.3078 9.2224 45.5131 8.25548 44.7963C-0.708131 38.1548 -2.47397 30.4418 -2.54117 30.117C-2.5785 29.9565 -2.59344 29.7997 -2.59344 29.6466Z" fill="#D1DAFB"/>
<path d="M29.797 16.8788C29.797 16.498 29.8978 16.1097 30.1069 15.7588C30.7266 14.7284 32.0631 14.3924 33.0973 15.0121C33.3623 15.1689 39.6155 18.947 44.7264 24.0579C45.5775 24.9091 45.5775 26.2904 44.7264 27.1416C43.8752 27.9928 42.4939 27.9928 41.6427 27.1416C36.9201 22.419 30.9096 18.7865 30.8498 18.7491C30.1741 18.3385 29.797 17.618 29.797 16.8788Z" fill="#D1DAFB"/>
<path d="M10.7985 3.17773C10.7985 2.64387 10.9926 2.11001 11.3846 1.69188C12.2059 0.81083 13.5872 0.766031 14.4645 1.58735C14.6624 1.77402 19.3812 6.19795 21.9945 10.4464C22.6254 11.4731 22.3044 12.8133 21.2815 13.4442C20.2548 14.0752 18.9146 13.7541 18.2836 12.7312C15.9728 8.97551 11.5339 4.81664 11.4891 4.77557C11.0299 4.34251 10.7985 3.76012 10.7985 3.17773Z" fill="#D1DAFB"/>
<path d="M16.0921 21.2395C16.0921 20.672 16.3124 20.1083 16.7492 19.679C17.6116 18.839 18.9892 18.8539 19.8329 19.7163L32.9143 33.1075C33.7543 33.9699 33.7394 35.3475 32.877 36.1912C32.0146 37.0312 30.637 37.0162 29.7933 36.1539L16.7119 22.7626C16.2975 22.3408 16.0921 21.7882 16.0921 21.2395Z" fill="#D1DAFB"/>
<path d="M22.3199 45.8458C22.3199 45.0469 22.7604 44.2778 23.5257 43.8933C24.5897 43.3632 25.8814 43.7813 26.4302 44.8304C26.8372 45.4501 29.0473 47.4138 30.828 48.9967C34.3149 52.0991 38.2722 55.6196 40.038 58.3672C40.6914 59.379 40.3964 60.7267 39.3847 61.38C38.373 62.0296 37.0215 61.7384 36.372 60.7267C34.9272 58.4792 31.0483 55.0297 27.931 52.2559C24.6943 49.3775 23.1151 47.9439 22.5514 46.8202C22.3946 46.5029 22.3199 46.1706 22.3199 45.8458ZM26.4526 44.8677C26.4489 44.8602 26.4452 44.8565 26.4452 44.849C26.4452 44.8565 26.4489 44.8602 26.4526 44.8677Z" fill="#D1DAFB"/>
<path d="M-11 48.018C-11 47.6522 -10.9067 47.2788 -10.7125 46.9354C-10.1152 45.8938 -8.78617 45.5316 -7.74085 46.1252C-7.36379 46.3418 1.53634 51.5087 8.29357 62.4435C8.92823 63.4664 8.60717 64.8104 7.58425 65.4451C6.56133 66.0797 5.21735 65.7586 4.58269 64.7357C-1.56228 54.7902 -9.82402 49.9593 -9.90615 49.9108C-10.608 49.5076 -11 48.7759 -11 48.018Z" fill="#D1DAFB"/>
<path d="M-7.26447 9.40439C-7.26447 8.9564 -7.12634 8.50094 -6.83887 8.11267C-6.12582 7.14202 -4.75944 6.93668 -3.78879 7.64974C-3.52746 7.84014 2.60257 12.3985 4.99186 17.5131C5.49959 18.6032 5.02919 19.9024 3.93908 20.4101C2.84896 20.9179 1.54979 20.4475 1.04206 19.3574C-0.552045 15.9377 -4.85277 12.279 -6.37222 11.159C-6.95834 10.7334 -7.26447 10.0727 -7.26447 9.40439Z" fill="#D1DAFB"/>
<path d="M24.4997 63.9032C24.4997 63.332 24.7199 62.7646 25.1605 62.339C26.0266 61.5027 27.4042 61.5214 28.2442 62.3875C28.6586 62.8168 38.4696 72.9676 42.0013 79.7099C42.5613 80.7739 42.1469 82.0918 41.0829 82.6517C40.0152 83.2117 38.6973 82.7973 38.1411 81.7334C34.9006 75.551 25.2127 65.5235 25.1157 65.4227C24.705 64.9971 24.4997 64.452 24.4997 63.9032Z" fill="#D1DAFB"/>
</g>
</svg>
